Coordinates
version=1
nRows=7
nColumns=63
inDegrees=yes

Units are S.I. units (second, meters, Newtons, ...)
If the header above contains a line with 'inDegrees', this indicates whether rotational values are in degrees (yes) or radians (no).

endheader
time	pelvis_tilt	pelvis_list	pelvis_rotation	pelvis_tx	pelvis_ty	pelvis_tz	hip_flexion_r	hip_adduction_r	hip_rotation_r	knee_angle_r	knee_angle_r_beta	ankle_angle_r	subtalar_angle_r	mtp_angle_r	hip_flexion_l	hip_adduction_l	hip_rotation_l	knee_angle_l	knee_angle_l_beta	ankle_angle_l	subtalar_angle_l	mtp_angle_l	L5_S1_Flex_Ext	L5_S1_Lat_Bending	L5_S1_axial_rotation	L4_L5_Flex_Ext	L4_L5_Lat_Bending	L4_L5_axial_rotation	L3_L4_Flex_Ext	L3_L4_Lat_Bending	L3_L4_axial_rotation	L2_L3_Flex_Ext	L2_L3_Lat_Bending	L2_L3_axial_rotation	L1_L2_Flex_Ext	L1_L2_Lat_Bending	L1_L2_axial_rotation	L1_T12_Flex_Ext	L1_T12_Lat_Bending	L1_T12_axial_rotation	Abs_r3	Abs_r2	Abs_r1	Abs_t1	Abs_t2	neck_flexion	neck_bending	neck_rotation	arm_flex_r	arm_add_r	arm_rot_r	elbow_flex_r	pro_sup_r	wrist_flex_r	wrist_dev_r	arm_flex_l	arm_add_l	arm_rot_l	elbow_flex_l	pro_sup_l	wrist_flex_l	wrist_dev_l
      2.26785714	     -0.82206757	    -10.65347271	     90.45071448	      0.26015221	      0.39896947	      0.92052041	     14.26318000	     -1.48481999	    -10.14913199	      8.44475665	      0.14738881	     27.04884450	      9.14843360	      0.00000000	     12.92343537	      2.30849746	     -0.09795935	      4.97469566	      0.08682482	     25.14104636	      3.33527329	      0.00000000	      0.04115719	     -0.11623936	      0.21490135	      0.07643301	     -0.15459835	      0.22833268	      0.06761714	     -0.28262437	      0.22833268	      0.04703855	     -0.28262437	      0.18803868	      0.03821856	     -0.23703530	      0.17460735	      0.02351722	     -0.18005476	      0.16117601	      0.29398167	     -1.31492286	      1.19521684	      0.00000000	      0.00000000	     23.53323187	      0.87948823	     17.21290629	      0.29625666	    -14.43956439	     34.91758387	     32.24242522	     87.42843793	     -8.34575537	      0.69764539	      0.78759464	    -14.72124377	     44.80628230	     29.67541653	     82.15597837	     -6.15268544	      0.33372209
      2.28571429	     -0.75976773	    -10.59355132	     90.47532399	      0.26000636	      0.39903164	      0.92073256	     14.39617161	     -1.46176518	    -10.17336260	      8.72842978	      0.15233984	     27.42055341	      9.40308164	      0.00000000	     12.88563581	      2.24699303	     -0.05555823	      4.99455969	      0.08717151	     25.17188063	      3.33700392	      0.00000000	      0.03724889	     -0.11376100	      0.20499283	      0.06917492	     -0.15130213	      0.21780488	      0.06119621	     -0.27659849	      0.21780488	      0.04257176	     -0.27659849	      0.17936873	      0.03458932	     -0.23198143	      0.16655668	      0.02128402	     -0.17621578	      0.15374462	      0.26606513	     -1.28688715	      1.14010863	      0.00000000	      0.00000000	     23.40231030	      0.89504891	     16.78706739	      0.41949767	    -14.45407344	     35.21314998	     32.11952979	     87.42913639	     -8.39654405	      0.56242522	      0.50442244	    -14.58069871	     43.35124517	     29.69019702	     82.82524794	     -5.78997996	      0.09067417
      2.30357143	     -0.72335945	    -10.44464244	     90.36346405	      0.26009827	      0.39941501	      0.92101031	     14.46866222	     -1.39424844	     -9.60386389	      9.02233034	      0.15746937	     27.59126170	      8.92708431	      0.00000000	     12.72823609	      2.16329596	     -0.58220645	      4.99581785	      0.08719347	     25.20116092	      3.93192381	      0.00000000	      0.01622814	     -0.11154661	      0.23445617	      0.03013727	     -0.14835699	      0.24910968	      0.02666120	     -0.27121443	      0.24910968	      0.01854714	     -0.27121443	      0.20514915	      0.01506945	     -0.22746585	      0.19049564	      0.00927276	     -0.17278570	      0.17584213	      0.11591595	     -1.26183756	      1.30397486	      0.00000000	      0.00000000	     23.29844303	      0.76391351	     16.46011623	      0.61217405	    -14.52619704	     35.81161932	     31.96452845	     87.27994677	     -8.61766367	      0.39990760	      0.72516238	    -14.67079552	     44.36282215	     29.55312502	     81.36261517	     -6.17657361	     -0.56065262
      2.32142857	     -0.72282999	    -10.41695334	     90.35192405	      0.26011542	      0.39964163	      0.92143852	     14.68084492	     -1.38658994	     -9.37220448	      9.39069942	      0.16389862	     27.69085099	      8.48331626	      0.00000000	     12.73241503	      2.14932552	     -0.71282457	      5.03173870	      0.08782041	     25.11886275	      4.12862249	      0.00000000	      0.01127056	     -0.11231244	      0.24129887	      0.02093056	     -0.14937555	      0.25638005	      0.01851640	     -0.27307647	      0.25638005	      0.01288112	     -0.27307647	      0.21113651	      0.01046584	     -0.22902753	      0.19605533	      0.00644000	     -0.17397197	      0.18097415	      0.08050448	     -1.27050082	      1.34203193	      0.00000000	      0.00000000	     23.25915453	      0.57496356	     16.18941043	      0.69777974	    -14.49260306	     35.87833155	     31.88397605	     87.33532968	     -8.78573879	      0.49430544	      0.90244548	    -14.74691312	     45.20899459	     29.41094970	     80.31265949	     -6.64507584	     -1.30239233
      2.33928571	     -0.78292865	    -10.50467288	     90.04913246	      0.26029924	      0.39953797	      0.92152950	     15.16204810	     -1.50534970	     -9.81582600	     10.15107638	      0.17716971	     27.99427802	      9.17800925	      0.00000000	     12.70576723	      2.18810747	     -0.41367556	      4.80352057	      0.08383725	     24.95888105	      3.38134841	      0.00000000	      0.03360530	     -0.11358242	      0.32646801	      0.06240841	     -0.15106462	      0.34687226	      0.05521015	     -0.27616430	      0.34687226	      0.03840750	     -0.27616430	      0.28565951	      0.03120588	     -0.23161728	      0.26525526	      0.01920207	     -0.17593917	      0.24485101	      0.24003931	     -1.28486707	      1.81571715	      0.00000000	      0.00000000	     22.96250867	      0.63499811	     16.20423713	      0.30838689	    -14.52735985	     34.74382693	     32.29005149	     87.46198208	     -8.17907150	      0.98368031	      0.91938288	    -14.56433059	     45.24933448	     28.96021623	     81.92150118	     -7.58850195	     -3.07499315
      2.35714286	     -0.88351919	    -10.54936322	     89.95624908	      0.26040485	      0.39962281	      0.92178216	     15.45638607	     -1.62583090	     -9.86747164	     10.67204754	      0.18626237	     27.86578472	      8.80782916	      0.00000000	     12.75938217	      2.28104449	     -0.35386853	      4.77525971	      0.08334400	     24.80983980	      3.18376521	      0.00000000	      0.04715694	     -0.12058264	      0.34149310	      0.08757516	     -0.16037491	      0.36283642	      0.07747414	     -0.29318463	      0.36283642	      0.05389567	     -0.29318463	      0.29880646	      0.04378994	     -0.24589212	      0.27746314	      0.02694548	     -0.18678251	      0.25611982	      0.33683733	     -1.36405492	      1.89928216	      0.00000000	      0.00000000	     22.71113379	      0.57357226	     16.37523763	      0.32839677	    -14.55787356	     35.02249979	     32.31291794	     87.38170387	     -8.43655931	      1.06674033	      1.03472882	    -14.64301718	     46.05881559	     28.84177086	     81.60097575	     -8.32294882	     -4.04087795
      2.37500000	     -1.01284743	    -10.54629889	     89.92856890	      0.26046899	      0.39967008	      0.92186389	     15.63413090	     -1.82327637	    -10.34934326	     11.15359431	      0.19466694	     27.70832385	      8.89382373	      0.00000000	     12.77508114	      2.41094082	     -0.28798687	      4.79890921	      0.08375677	     24.74092039	      3.02883884	      0.00000000	      0.05565174	     -0.13053593	      0.34527332	      0.10335085	     -0.17361278	      0.36685290	      0.09143024	     -0.31738506	      0.36685290	      0.06360437	     -0.31738506	      0.30211415	      0.05167821	     -0.26618886	      0.28053457	      0.03179940	     -0.20220015	      0.25895499	      0.39751481	     -1.47664853	      1.92030661	      0.00000000	      0.00000000	     22.49194889	      0.41260305	     16.48295685	      0.19072409	    -14.49243569	     34.49450695	     32.44318707	     87.49340036	     -8.08594438	      1.43497400	      0.88828241	    -14.67269443	     45.40737858	     29.07492588	     82.47236308	     -8.43699774	     -4.11217646
